REM DIRINDEX 1\2,1\3,1\4,1\5
REM DIRNAME "folder01","folder02","folder03","folder04","folder05"
TITLE ""
FILE "1Q_t_1659-1668.mp3" MP3
  TRACK 01 AUDIO
    TITLE "0:"
    INDEX 01 00:00:00
  TRACK 02 AUDIO
    TITLE "3:cjc172_5967"
    INDEX 01 00:00:08
  TRACK 03 AUDIO
    TITLE "0:"
    INDEX 01 00:01:14
  TRACK 04 AUDIO
    TITLE "4:cjc172_5968"
    INDEX 01 00:01:23
  TRACK 05 AUDIO
    TITLE "0:"
    INDEX 01 00:03:28
  TRACK 06 AUDIO
    TITLE "5:cjc172_5969"
    INDEX 01 00:03:36
  TRACK 07 AUDIO
    TITLE "0:"
    INDEX 01 00:07:61
  TRACK 08 AUDIO
    TITLE "3:cjc172_5970"
    INDEX 01 00:08:39
  TRACK 09 AUDIO
    TITLE "0:"
    INDEX 01 00:09:56
  TRACK 10 AUDIO
    TITLE "4:cjc172_5971"
    INDEX 01 00:09:66
  TRACK 11 AUDIO
    TITLE "0:"
    INDEX 01 00:12:06
  TRACK 12 AUDIO
    TITLE "5:cjc172_5972"
    INDEX 01 00:12:15
  TRACK 13 AUDIO
    TITLE "0:"
    INDEX 01 00:17:05
  TRACK 14 AUDIO
    TITLE "3:cjc172_5973"
    INDEX 01 00:17:52
  TRACK 15 AUDIO
    TITLE "0:"
    INDEX 01 00:18:69
  TRACK 16 AUDIO
    TITLE "4:cjc172_5974"
    INDEX 01 00:19:04
  TRACK 17 AUDIO
    TITLE "0:"
    INDEX 01 00:20:11
  TRACK 18 AUDIO
    TITLE "5:cjc172_5975"
    INDEX 01 00:20:19
  TRACK 19 AUDIO
    TITLE "0:"
    INDEX 01 00:24:56
  TRACK 20 AUDIO
    TITLE "3:cjc172_5976"
    INDEX 01 00:25:28
  TRACK 21 AUDIO
    TITLE "0:"
    INDEX 01 00:26:43
  TRACK 22 AUDIO
    TITLE "4:cjc172_5977"
    INDEX 01 00:26:51
  TRACK 23 AUDIO
    TITLE "0:"
    INDEX 01 00:28:50
  TRACK 24 AUDIO
    TITLE "5:cjc172_5978"
    INDEX 01 00:28:61
  TRACK 25 AUDIO
    TITLE "0:"
    INDEX 01 00:33:04
  TRACK 26 AUDIO
    TITLE "3:cjc172_5979"
    INDEX 01 00:33:53
  TRACK 27 AUDIO
    TITLE "0:"
    INDEX 01 00:35:01
  TRACK 28 AUDIO
    TITLE "4:cjc172_5980"
    INDEX 01 00:35:11
  TRACK 29 AUDIO
    TITLE "0:"
    INDEX 01 00:37:19
  TRACK 30 AUDIO
    TITLE "5:cjc172_5981"
    INDEX 01 00:37:27
  TRACK 31 AUDIO
    TITLE "0:"
    INDEX 01 00:42:01
  TRACK 32 AUDIO
    TITLE "3:cjc172_5982"
    INDEX 01 00:42:58
  TRACK 33 AUDIO
    TITLE "0:"
    INDEX 01 00:44:04
  TRACK 34 AUDIO
    TITLE "4:cjc172_5983"
    INDEX 01 00:44:12
  TRACK 35 AUDIO
    TITLE "0:"
    INDEX 01 00:46:18
  TRACK 36 AUDIO
    TITLE "5:cjc172_5984"
    INDEX 01 00:46:30
  TRACK 37 AUDIO
    TITLE "0:"
    INDEX 01 00:52:09
  TRACK 38 AUDIO
    TITLE "3:cjc172_5985"
    INDEX 01 00:52:56
  TRACK 39 AUDIO
    TITLE "0:"
    INDEX 01 00:53:59
  TRACK 40 AUDIO
    TITLE "4:cjc172_5986"
    INDEX 01 00:53:69
  TRACK 41 AUDIO
    TITLE "0:"
    INDEX 01 00:54:73
  TRACK 42 AUDIO
    TITLE "5:cjc172_5987"
    INDEX 01 00:55:05
  TRACK 43 AUDIO
    TITLE "0:"
    INDEX 01 01:01:20
  TRACK 44 AUDIO
    TITLE "3:cjc172_5988"
    INDEX 01 01:01:67
  TRACK 45 AUDIO
    TITLE "0:"
    INDEX 01 01:03:05
  TRACK 46 AUDIO
    TITLE "4:cjc172_5989"
    INDEX 01 01:03:13
  TRACK 47 AUDIO
    TITLE "0:"
    INDEX 01 01:05:16
  TRACK 48 AUDIO
    TITLE "5:cjc172_5990"
    INDEX 01 01:05:23
  TRACK 49 AUDIO
    TITLE "0:"
    INDEX 01 01:10:32
  TRACK 50 AUDIO
    TITLE "3:cjc172_5991"
    INDEX 01 01:11:03
  TRACK 51 AUDIO
    TITLE "0:"
    INDEX 01 01:12:29
  TRACK 52 AUDIO
    TITLE "4:cjc172_5992"
    INDEX 01 01:12:41
  TRACK 53 AUDIO
    TITLE "0:"
    INDEX 01 01:14:30
  TRACK 54 AUDIO
    TITLE "5:cjc172_5993"
    INDEX 01 01:14:38
  TRACK 55 AUDIO
    TITLE "0:"
    INDEX 01 01:19:18
  TRACK 56 AUDIO
    TITLE "3:cjc172_5994"
    INDEX 01 01:19:67
  TRACK 57 AUDIO
    TITLE "0:"
    INDEX 01 01:21:17
  TRACK 58 AUDIO
    TITLE "4:cjc172_5995"
    INDEX 01 01:21:22
  TRACK 59 AUDIO
    TITLE "0:"
    INDEX 01 01:23:23
  TRACK 60 AUDIO
    TITLE "5:cjc172_5996"
    INDEX 01 01:23:31
  TRACK 61 AUDIO
    TITLE "0:"
    INDEX 01 01:27:54
